<mxfile host="app.diagrams.net" modified="2023-05-03T05:41:56.884Z" agent="Mozilla/5.0 (Macintosh; Intel Mac OS X 10_15_7) AppleWebKit/605.1.15 (KHTML, like Gecko) Version/16.4 Safari/605.1.15" version="21.2.6" etag="tb67DEWwngSlRun1JcjR" type="github">
  <diagram name="第 1 页" id="rKAStLjC-Ciw4aD9iUgC">
    <mxGraphModel>
      <root>
        <mxCell id="0" />
        <mxCell id="1" parent="0" />
      </root>
    </mxGraphModel>
  </diagram>
</mxfile>
